%TF.GenerationSoftware,KiCad,Pcbnew,6.0.11-2627ca5db0~126~ubuntu22.04.1*%
%TF.CreationDate,2023-08-06T20:15:41-06:00*%
%TF.ProjectId,LED-Bank,4c45442d-4261-46e6-9b2e-6b696361645f,rev?*%
%TF.SameCoordinates,Original*%
%TF.FileFunction,Copper,L2,Bot*%
%TF.FilePolarity,Positive*%
%FSLAX46Y46*%
G04 Gerber Fmt 4.6, Leading zero omitted, Abs format (unit mm)*
G04 Created by KiCad (PCBNEW 6.0.11-2627ca5db0~126~ubuntu22.04.1) date 2023-08-06 20:15:41*
%MOMM*%
%LPD*%
G01*
G04 APERTURE LIST*
%TA.AperFunction,ComponentPad*%
%ADD10C,1.440000*%
%TD*%
%TA.AperFunction,ComponentPad*%
%ADD11C,1.600000*%
%TD*%
%TA.AperFunction,ComponentPad*%
%ADD12O,1.600000X1.600000*%
%TD*%
%TA.AperFunction,ComponentPad*%
%ADD13R,1.700000X1.700000*%
%TD*%
%TA.AperFunction,ComponentPad*%
%ADD14O,1.700000X1.700000*%
%TD*%
%TA.AperFunction,ComponentPad*%
%ADD15C,1.800000*%
%TD*%
%TA.AperFunction,ComponentPad*%
%ADD16R,1.800000X1.800000*%
%TD*%
%TA.AperFunction,Conductor*%
%ADD17C,0.250000*%
%TD*%
G04 APERTURE END LIST*
D10*
%TO.P,RV1,1,1*%
%TO.N,Net-(J1-Pad1)*%
X157312430Y-120162094D03*
%TO.P,RV1,2,2*%
%TO.N,Net-(RV1-Pad2)*%
X159852430Y-117622094D03*
%TO.P,RV1,3,3*%
%TO.N,Net-(J1-Pad2)*%
X157312430Y-115082094D03*
%TD*%
D11*
%TO.P,R10,1*%
%TO.N,Net-(J1-Pad12)*%
X197931192Y-121522094D03*
D12*
%TO.P,R10,2*%
%TO.N,Net-(R10-Pad2)*%
X197931192Y-113902094D03*
%TD*%
D11*
%TO.P,R9,1*%
%TO.N,Net-(J1-Pad11)*%
X194376744Y-121522094D03*
D12*
%TO.P,R9,2*%
%TO.N,Net-(R9-Pad2)*%
X194376744Y-113902094D03*
%TD*%
D11*
%TO.P,R8,1*%
%TO.N,Net-(J1-Pad10)*%
X190822300Y-121522094D03*
D12*
%TO.P,R8,2*%
%TO.N,Net-(R8-Pad2)*%
X190822300Y-113902094D03*
%TD*%
D11*
%TO.P,R7,1*%
%TO.N,Net-(J1-Pad9)*%
X187267856Y-121522094D03*
D12*
%TO.P,R7,2*%
%TO.N,Net-(D7-Pad2)*%
X187267856Y-113902094D03*
%TD*%
D11*
%TO.P,R6,1*%
%TO.N,Net-(J1-Pad8)*%
X183713412Y-121522094D03*
D12*
%TO.P,R6,2*%
%TO.N,Net-(R6-Pad2)*%
X183713412Y-113902094D03*
%TD*%
D11*
%TO.P,R5,1*%
%TO.N,Net-(J1-Pad7)*%
X180158968Y-121522094D03*
D12*
%TO.P,R5,2*%
%TO.N,Net-(D5-Pad2)*%
X180158968Y-113902094D03*
%TD*%
D11*
%TO.P,R4,1*%
%TO.N,Net-(J1-Pad6)*%
X176604524Y-121522094D03*
D12*
%TO.P,R4,2*%
%TO.N,Net-(R4-Pad2)*%
X176604524Y-113902094D03*
%TD*%
D11*
%TO.P,R3,1*%
%TO.N,Net-(J1-Pad5)*%
X173050080Y-121522094D03*
D12*
%TO.P,R3,2*%
%TO.N,Net-(R3-Pad2)*%
X173050080Y-113902094D03*
%TD*%
D11*
%TO.P,R2,1*%
%TO.N,Net-(J1-Pad4)*%
X169495636Y-121522094D03*
D12*
%TO.P,R2,2*%
%TO.N,Net-(D2-Pad2)*%
X169495636Y-113902094D03*
%TD*%
D11*
%TO.P,R1,1*%
%TO.N,Net-(J1-Pad3)*%
X165941192Y-121522094D03*
D12*
%TO.P,R1,2*%
%TO.N,Net-(R1-Pad2)*%
X165941192Y-113902094D03*
%TD*%
D13*
%TO.P,J1,1,Pin_1*%
%TO.N,Net-(J1-Pad1)*%
X162417430Y-125451618D03*
D14*
%TO.P,J1,2,Pin_2*%
%TO.N,Net-(J1-Pad2)*%
X164957430Y-125451618D03*
%TO.P,J1,3,Pin_3*%
%TO.N,Net-(J1-Pad3)*%
X167497430Y-125451618D03*
%TO.P,J1,4,Pin_4*%
%TO.N,Net-(J1-Pad4)*%
X170037430Y-125451618D03*
%TO.P,J1,5,Pin_5*%
%TO.N,Net-(J1-Pad5)*%
X172577430Y-125451618D03*
%TO.P,J1,6,Pin_6*%
%TO.N,Net-(J1-Pad6)*%
X175117430Y-125451618D03*
%TO.P,J1,7,Pin_7*%
%TO.N,Net-(J1-Pad7)*%
X177657430Y-125451618D03*
%TO.P,J1,8,Pin_8*%
%TO.N,Net-(J1-Pad8)*%
X180197430Y-125451618D03*
%TO.P,J1,9,Pin_9*%
%TO.N,Net-(J1-Pad9)*%
X182737430Y-125451618D03*
%TO.P,J1,10,Pin_10*%
%TO.N,Net-(J1-Pad10)*%
X185277430Y-125451618D03*
%TO.P,J1,11,Pin_11*%
%TO.N,Net-(J1-Pad11)*%
X187817430Y-125451618D03*
%TO.P,J1,12,Pin_12*%
%TO.N,Net-(J1-Pad12)*%
X190357430Y-125451618D03*
%TD*%
D15*
%TO.P,D10,2,A*%
%TO.N,Net-(R10-Pad2)*%
X200033692Y-107752094D03*
D16*
%TO.P,D10,1,K*%
%TO.N,Net-(RV1-Pad2)*%
X197493692Y-107752094D03*
%TD*%
D15*
%TO.P,D9,2,A*%
%TO.N,Net-(R9-Pad2)*%
X195061185Y-107752094D03*
D16*
%TO.P,D9,1,K*%
%TO.N,Net-(RV1-Pad2)*%
X192521185Y-107752094D03*
%TD*%
D15*
%TO.P,D8,2,A*%
%TO.N,Net-(R8-Pad2)*%
X190088683Y-107752094D03*
D16*
%TO.P,D8,1,K*%
%TO.N,Net-(RV1-Pad2)*%
X187548683Y-107752094D03*
%TD*%
D15*
%TO.P,D7,2,A*%
%TO.N,Net-(D7-Pad2)*%
X185116181Y-107752094D03*
D16*
%TO.P,D7,1,K*%
%TO.N,Net-(RV1-Pad2)*%
X182576181Y-107752094D03*
%TD*%
D15*
%TO.P,D6,2,A*%
%TO.N,Net-(R6-Pad2)*%
X180143679Y-107752094D03*
D16*
%TO.P,D6,1,K*%
%TO.N,Net-(RV1-Pad2)*%
X177603679Y-107752094D03*
%TD*%
D15*
%TO.P,D5,2,A*%
%TO.N,Net-(D5-Pad2)*%
X175171177Y-107752094D03*
D16*
%TO.P,D5,1,K*%
%TO.N,Net-(RV1-Pad2)*%
X172631177Y-107752094D03*
%TD*%
D15*
%TO.P,D4,2,A*%
%TO.N,Net-(R4-Pad2)*%
X170198675Y-107752094D03*
D16*
%TO.P,D4,1,K*%
%TO.N,Net-(RV1-Pad2)*%
X167658675Y-107752094D03*
%TD*%
D15*
%TO.P,D3,2,A*%
%TO.N,Net-(R3-Pad2)*%
X165226173Y-107752094D03*
D16*
%TO.P,D3,1,K*%
%TO.N,Net-(RV1-Pad2)*%
X162686173Y-107752094D03*
%TD*%
%TO.P,D2,1,K*%
%TO.N,Net-(RV1-Pad2)*%
X157713671Y-107752094D03*
D15*
%TO.P,D2,2,A*%
%TO.N,Net-(D2-Pad2)*%
X160253671Y-107752094D03*
%TD*%
D16*
%TO.P,D1,1,K*%
%TO.N,Net-(RV1-Pad2)*%
X152741169Y-107752094D03*
D15*
%TO.P,D1,2,A*%
%TO.N,Net-(R1-Pad2)*%
X155281169Y-107752094D03*
%TD*%
D17*
%TO.N,Net-(RV1-Pad2)*%
X180731954Y-108977094D02*
X184752906Y-108977094D01*
X184752906Y-108977094D02*
X189832906Y-108977094D01*
X187548683Y-107752094D02*
X186323683Y-108977094D01*
X186323683Y-108977094D02*
X184752906Y-108977094D01*
X189832906Y-108977094D02*
X196268692Y-108977094D01*
X192521185Y-107752094D02*
X191296185Y-108977094D01*
X191296185Y-108977094D02*
X189832906Y-108977094D01*
X165491954Y-108977094D02*
X166972906Y-108977094D01*
X166972906Y-108977094D02*
X169512906Y-108977094D01*
X159852430Y-117622094D02*
X159852430Y-116097570D01*
X159852430Y-116097570D02*
X166972906Y-108977094D01*
X153966169Y-108977094D02*
X161892906Y-108977094D01*
X152741169Y-107752094D02*
X153966169Y-108977094D01*
X175651954Y-108977094D02*
X180731954Y-108977094D01*
X182576181Y-107752094D02*
X181351181Y-108977094D01*
X181351181Y-108977094D02*
X180731954Y-108977094D01*
X174592906Y-108977094D02*
X175651954Y-108977094D01*
X176378679Y-108977094D02*
X175651954Y-108977094D01*
X177603679Y-107752094D02*
X176378679Y-108977094D01*
X169512906Y-108977094D02*
X174592906Y-108977094D01*
X172631177Y-107752094D02*
X173856177Y-108977094D01*
X173856177Y-108977094D02*
X174592906Y-108977094D01*
X167658675Y-107752094D02*
X168883675Y-108977094D01*
X168883675Y-108977094D02*
X169512906Y-108977094D01*
X161892906Y-108977094D02*
X165491954Y-108977094D01*
X162686173Y-107752094D02*
X163911173Y-108977094D01*
X163911173Y-108977094D02*
X165491954Y-108977094D01*
X157713671Y-107752094D02*
X158938671Y-108977094D01*
X158938671Y-108977094D02*
X161892906Y-108977094D01*
X196268692Y-108977094D02*
X197493692Y-107752094D01*
%TD*%
M02*
