%TF.GenerationSoftware,KiCad,Pcbnew,6.0.11-2627ca5db0~126~ubuntu22.04.1*%
%TF.CreationDate,2023-08-06T20:15:41-06:00*%
%TF.ProjectId,LED-Bank,4c45442d-4261-46e6-9b2e-6b696361645f,rev?*%
%TF.SameCoordinates,Original*%
%TF.FileFunction,Soldermask,Top*%
%TF.FilePolarity,Negative*%
%FSLAX46Y46*%
G04 Gerber Fmt 4.6, Leading zero omitted, Abs format (unit mm)*
G04 Created by KiCad (PCBNEW 6.0.11-2627ca5db0~126~ubuntu22.04.1) date 2023-08-06 20:15:41*
%MOMM*%
%LPD*%
G01*
G04 APERTURE LIST*
%ADD10C,1.440000*%
%ADD11C,1.600000*%
%ADD12O,1.600000X1.600000*%
%ADD13R,1.700000X1.700000*%
%ADD14O,1.700000X1.700000*%
%ADD15C,1.800000*%
%ADD16R,1.800000X1.800000*%
G04 APERTURE END LIST*
D10*
%TO.C,RV1*%
X157312430Y-120162094D03*
X159852430Y-117622094D03*
X157312430Y-115082094D03*
%TD*%
D11*
%TO.C,R10*%
X197931192Y-121522094D03*
D12*
X197931192Y-113902094D03*
%TD*%
D11*
%TO.C,R9*%
X194376744Y-121522094D03*
D12*
X194376744Y-113902094D03*
%TD*%
D11*
%TO.C,R8*%
X190822300Y-121522094D03*
D12*
X190822300Y-113902094D03*
%TD*%
D11*
%TO.C,R7*%
X187267856Y-121522094D03*
D12*
X187267856Y-113902094D03*
%TD*%
D11*
%TO.C,R6*%
X183713412Y-121522094D03*
D12*
X183713412Y-113902094D03*
%TD*%
D11*
%TO.C,R5*%
X180158968Y-121522094D03*
D12*
X180158968Y-113902094D03*
%TD*%
D11*
%TO.C,R4*%
X176604524Y-121522094D03*
D12*
X176604524Y-113902094D03*
%TD*%
D11*
%TO.C,R3*%
X173050080Y-121522094D03*
D12*
X173050080Y-113902094D03*
%TD*%
D11*
%TO.C,R2*%
X169495636Y-121522094D03*
D12*
X169495636Y-113902094D03*
%TD*%
D11*
%TO.C,R1*%
X165941192Y-121522094D03*
D12*
X165941192Y-113902094D03*
%TD*%
D13*
%TO.C,J1*%
X162417430Y-125451618D03*
D14*
X164957430Y-125451618D03*
X167497430Y-125451618D03*
X170037430Y-125451618D03*
X172577430Y-125451618D03*
X175117430Y-125451618D03*
X177657430Y-125451618D03*
X180197430Y-125451618D03*
X182737430Y-125451618D03*
X185277430Y-125451618D03*
X187817430Y-125451618D03*
X190357430Y-125451618D03*
%TD*%
D15*
%TO.C,D10*%
X200033692Y-107752094D03*
D16*
X197493692Y-107752094D03*
%TD*%
D15*
%TO.C,D9*%
X195061185Y-107752094D03*
D16*
X192521185Y-107752094D03*
%TD*%
D15*
%TO.C,D8*%
X190088683Y-107752094D03*
D16*
X187548683Y-107752094D03*
%TD*%
D15*
%TO.C,D7*%
X185116181Y-107752094D03*
D16*
X182576181Y-107752094D03*
%TD*%
D15*
%TO.C,D6*%
X180143679Y-107752094D03*
D16*
X177603679Y-107752094D03*
%TD*%
D15*
%TO.C,D5*%
X175171177Y-107752094D03*
D16*
X172631177Y-107752094D03*
%TD*%
D15*
%TO.C,D4*%
X170198675Y-107752094D03*
D16*
X167658675Y-107752094D03*
%TD*%
D15*
%TO.C,D3*%
X165226173Y-107752094D03*
D16*
X162686173Y-107752094D03*
%TD*%
%TO.C,D2*%
X157713671Y-107752094D03*
D15*
X160253671Y-107752094D03*
%TD*%
D16*
%TO.C,D1*%
X152741169Y-107752094D03*
D15*
X155281169Y-107752094D03*
%TD*%
M02*
