%TF.GenerationSoftware,KiCad,Pcbnew,6.0.11-2627ca5db0~126~ubuntu22.04.1*%
%TF.CreationDate,2023-08-06T20:15:41-06:00*%
%TF.ProjectId,LED-Bank,4c45442d-4261-46e6-9b2e-6b696361645f,rev?*%
%TF.SameCoordinates,Original*%
%TF.FileFunction,Legend,Bot*%
%TF.FilePolarity,Positive*%
%FSLAX46Y46*%
G04 Gerber Fmt 4.6, Leading zero omitted, Abs format (unit mm)*
G04 Created by KiCad (PCBNEW 6.0.11-2627ca5db0~126~ubuntu22.04.1) date 2023-08-06 20:15:41*
%MOMM*%
%LPD*%
G01*
G04 APERTURE LIST*
%ADD10C,0.120000*%
G04 APERTURE END LIST*
D10*
%TO.C,J1*%
X191687430Y-126891618D02*
X191687430Y-129551618D01*
X162797430Y-126561618D02*
X162797430Y-126891618D01*
X162037430Y-135551618D02*
X162797430Y-135551618D01*
X171307430Y-126891618D02*
X171307430Y-129551618D01*
X174737430Y-126494547D02*
X174737430Y-126891618D01*
X169657430Y-126494547D02*
X169657430Y-126891618D01*
X189977430Y-135551618D02*
X190737430Y-135551618D01*
X164577430Y-135551618D02*
X165337430Y-135551618D01*
X170417430Y-126494547D02*
X170417430Y-126891618D01*
X178927430Y-126891618D02*
X178927430Y-129551618D01*
X161087430Y-129551618D02*
X161087430Y-126891618D01*
X187437430Y-126494547D02*
X187437430Y-126891618D01*
X167877430Y-135551618D02*
X167877430Y-129551618D01*
X184897430Y-135551618D02*
X185657430Y-135551618D01*
X184897430Y-129551618D02*
X184897430Y-135551618D01*
X181467430Y-126891618D02*
X181467430Y-129551618D01*
X177277430Y-135551618D02*
X178037430Y-135551618D01*
X184897430Y-126494547D02*
X184897430Y-126891618D01*
X185657430Y-126494547D02*
X185657430Y-126891618D01*
X162037430Y-129551618D02*
X162037430Y-135551618D01*
X162337430Y-129551618D02*
X162337430Y-135551618D01*
X180577430Y-126494547D02*
X180577430Y-126891618D01*
X189977430Y-126494547D02*
X189977430Y-126891618D01*
X163687430Y-126891618D02*
X163687430Y-129551618D01*
X167117430Y-126494547D02*
X167117430Y-126891618D01*
X177277430Y-126494547D02*
X177277430Y-126891618D01*
X162577430Y-129551618D02*
X162577430Y-135551618D01*
X162037430Y-126561618D02*
X162037430Y-126891618D01*
X162417430Y-124181618D02*
X161147430Y-124181618D01*
X191687430Y-129551618D02*
X161087430Y-129551618D01*
X179817430Y-126494547D02*
X179817430Y-126891618D01*
X162697430Y-129551618D02*
X162697430Y-135551618D01*
X167877430Y-126494547D02*
X167877430Y-126891618D01*
X185657430Y-135551618D02*
X185657430Y-129551618D01*
X189977430Y-129551618D02*
X189977430Y-135551618D01*
X174737430Y-129551618D02*
X174737430Y-135551618D01*
X173847430Y-126891618D02*
X173847430Y-129551618D01*
X164577430Y-126494547D02*
X164577430Y-126891618D01*
X165337430Y-135551618D02*
X165337430Y-129551618D01*
X167117430Y-129551618D02*
X167117430Y-135551618D01*
X188197430Y-126494547D02*
X188197430Y-126891618D01*
X175497430Y-126494547D02*
X175497430Y-126891618D01*
X182357430Y-126494547D02*
X182357430Y-126891618D01*
X190737430Y-135551618D02*
X190737430Y-129551618D01*
X172197430Y-129551618D02*
X172197430Y-135551618D01*
X161087430Y-126891618D02*
X191687430Y-126891618D01*
X165337430Y-126494547D02*
X165337430Y-126891618D01*
X169657430Y-135551618D02*
X170417430Y-135551618D01*
X178037430Y-126494547D02*
X178037430Y-126891618D01*
X175497430Y-135551618D02*
X175497430Y-129551618D01*
X176387430Y-126891618D02*
X176387430Y-129551618D01*
X162217430Y-129551618D02*
X162217430Y-135551618D01*
X172957430Y-135551618D02*
X172957430Y-129551618D01*
X172957430Y-126494547D02*
X172957430Y-126891618D01*
X161147430Y-124181618D02*
X161147430Y-125451618D01*
X172197430Y-135551618D02*
X172957430Y-135551618D01*
X166227430Y-126891618D02*
X166227430Y-129551618D01*
X186547430Y-126891618D02*
X186547430Y-129551618D01*
X182357430Y-129551618D02*
X182357430Y-135551618D01*
X162457430Y-129551618D02*
X162457430Y-135551618D01*
X167117430Y-135551618D02*
X167877430Y-135551618D01*
X190737430Y-126494547D02*
X190737430Y-126891618D01*
X188197430Y-135551618D02*
X188197430Y-129551618D01*
X172197430Y-126494547D02*
X172197430Y-126891618D01*
X183117430Y-135551618D02*
X183117430Y-129551618D01*
X162097430Y-129551618D02*
X162097430Y-135551618D01*
X178037430Y-135551618D02*
X178037430Y-129551618D01*
X180577430Y-135551618D02*
X180577430Y-129551618D01*
X168767430Y-126891618D02*
X168767430Y-129551618D01*
X170417430Y-135551618D02*
X170417430Y-129551618D01*
X169657430Y-129551618D02*
X169657430Y-135551618D01*
X179817430Y-135551618D02*
X180577430Y-135551618D01*
X187437430Y-135551618D02*
X188197430Y-135551618D01*
X184007430Y-126891618D02*
X184007430Y-129551618D01*
X183117430Y-126494547D02*
X183117430Y-126891618D01*
X187437430Y-129551618D02*
X187437430Y-135551618D01*
X164577430Y-129551618D02*
X164577430Y-135551618D01*
X182357430Y-135551618D02*
X183117430Y-135551618D01*
X189087430Y-126891618D02*
X189087430Y-129551618D01*
X174737430Y-135551618D02*
X175497430Y-135551618D01*
X179817430Y-129551618D02*
X179817430Y-135551618D01*
X177277430Y-129551618D02*
X177277430Y-135551618D01*
X162797430Y-135551618D02*
X162797430Y-129551618D01*
%TD*%
M02*
